<svg width="36" height="36" viewBox="0 0 36 36" fill="none" xmlns="http://www.w3.org/2000/svg">
<rect width="36" height="36" rx="18" fill="#5454D4"/>
<g clip-path="url(#clip0_36_3066)">
<path d="M18.0002 6.74999C18.1652 6.74999 18.329 6.74999 18.4915 6.74999C16.8856 8.24212 15.8535 10.2498 15.5743 12.424C15.2952 14.5982 15.7868 16.8015 16.9636 18.6509C18.1405 20.5003 19.9282 21.8788 22.016 22.5468C24.1038 23.2149 26.3596 23.1302 28.3915 22.3075C27.6099 24.1881 26.3325 25.8213 24.6955 27.0328C23.0584 28.2443 21.1233 28.9888 19.0964 29.1867C17.0694 29.3847 15.0268 29.0287 13.1863 28.1567C11.3459 27.2848 9.77661 25.9296 8.64595 24.2357C7.5153 22.5419 6.86565 20.5728 6.76632 18.5387C6.66699 16.5046 7.12169 14.4816 8.08193 12.6856C9.04217 10.8897 10.4719 9.38802 12.2187 8.34091C13.9654 7.29379 15.9637 6.74048 18.0002 6.73999V6.74999Z" stroke="white" stroke-width="1.5" stroke-linecap="round" stroke-linejoin="round"/>
</g>
<defs>
<clipPath id="clip0_36_3066">
<rect width="30" height="30" fill="white" transform="translate(3 3)"/>
</clipPath>
</defs>
</svg>
